# xmcd CD database file
#
# Track frame offsets:
#	150
#	12515
#	22955
#	36557
#	47502
#	66860
#	78472
#	88637
#	109017
#	131332
#	154705
#	172670
#
# Disc length: 2667 seconds
#
# Revision: 8
# Processed by: cddbd v1.5.2PL0 Copyright (c) Steve Scherf et al.
# Submitted via: CDex 1.51
#
DISCID=8b0a690c
DTITLE=Nancy Wilson and Cannonball Adderley - Nancy Wilson and Cannonball Adderley [Remastered 1993]
DYEAR=1961
DGENRE=Jazz
TTITLE0=Save Your Love for Me
TTITLE1=Never Will I Marry
TTITLE2=The Old Country
TTITLE3=Happy Talk
TTITLE4=The Masquerade Is Over
TTITLE5=A Sleepin' Bee
TTITLE6=Little Unhappy Boy
TTITLE7=Teaneck
TTITLE8=I Can't Get Started
TTITLE9=One Man's Dream
TTITLE10=Never Say Yes
TTITLE11=Unit 7
EXTD=YEAR: 1961
EXTT0=
EXTT1=
EXTT2=
EXTT3=
EXTT4=
EXTT5=
EXTT6=
EXTT7=
EXTT8=
EXTT9=
EXTT10=
EXTT11=
PLAYORDER=
